<?xml version="1.0" encoding="UTF-8" standalone="no"?><!DOCTYPE svg PUBLIC "-//W3C//DTD SVG 1.1//EN" "http://www.w3.org/Graphics/SVG/1.1/DTD/svg11.dtd"><svg width="100%" height="100%" viewBox="0 0 3508 2481" version="1.1" xmlns="http://www.w3.org/2000/svg" xmlns:xlink="http://www.w3.org/1999/xlink" xml:space="preserve" xmlns:serif="http://www.serif.com/" style="fill-rule:evenodd;clip-rule:evenodd;stroke-linejoin:round;stroke-miterlimit:2;"><rect id="Page-1" serif:id="Page 1" x="0" y="0" width="3507.88" height="2480.32" style="fill:#fff;fill-opacity:0;"/><g id="Page-11" serif:id="Page 1"><g id="Calque-1" serif:id="Calque 1"><path d="M1297.94,1960.42c138.588,-0 250.933,-112.346 250.933,-250.934l0,-1218.15c-138.587,0 -250.933,112.346 -250.933,250.934l0,1218.15Z" style="fill:#fff;fill-rule:nonzero;"/><path d="M2300.53,1886.92c-98,98 -256.879,98 -354.875,-0l-387.663,-387.663c97.996,-98 256.875,-98 354.871,0l387.667,387.663Z" style="fill:#fff;fill-rule:nonzero;"/><path d="M2117.09,1122.38c-0,86.954 -70.492,157.446 -157.446,157.446c-86.958,0 -157.446,-70.492 -157.446,-157.446c0,-86.958 70.488,-157.45 157.446,-157.45c86.954,0 157.446,70.492 157.446,157.45" style="fill:#fff;fill-rule:nonzero;"/></g></g></svg>